<?xml version="1.0" standalone="no"?>
<!DOCTYPE svg PUBLIC "-//W3C//DTD SVG 1.1//EN" "http://www.w3.org/Graphics/SVG/1.1/DTD/svg11.dtd" >
<svg xmlns="http://www.w3.org/2000/svg">
<metadata>
Created by FontForge 20120731 at Tue Aug  2 15:36:25 2016
 By admin
</metadata>
<defs>
<font id="iconfont" horiz-adv-x="1024" >
  <font-face 
    font-family="iconfont"
    font-weight="500"
    font-stretch="normal"
    units-per-em="1024"
    panose-1="2 0 6 3 0 0 0 0 0 0"
    ascent="896"
    descent="-128"
    x-height="792"
    bbox="16.4615 -109.176 1009 877.783"
    underline-thickness="50"
    underline-position="-100"
    unicode-range="U+0078-E620"
  />
<missing-glyph horiz-adv-x="374" 
d="M34 0v682h272v-682h-272zM68 34h204v614h-204v-614z" />
    <glyph glyph-name=".notdef" horiz-adv-x="374" 
d="M34 0v682h272v-682h-272zM68 34h204v614h-204v-614z" />
    <glyph glyph-name=".null" horiz-adv-x="0" 
 />
    <glyph glyph-name="nonmarkingreturn" horiz-adv-x="341" 
 />
    <glyph glyph-name="x" unicode="x" horiz-adv-x="1001" 
d="M281 543q-27 -1 -53 -1h-83q-18 0 -36.5 -6t-32.5 -18.5t-23 -32t-9 -45.5v-76h912v41q0 16 -0.5 30t-0.5 18q0 13 -5 29t-17 29.5t-31.5 22.5t-49.5 9h-133v-97h-438v97zM955 310v-52q0 -23 0.5 -52t0.5 -58t-10.5 -47.5t-26 -30t-33 -16t-31.5 -4.5q-14 -1 -29.5 -0.5
t-29.5 0.5h-32l-45 128h-439l-44 -128h-29h-34q-20 0 -45 1q-25 0 -41 9.5t-25.5 23t-13.5 29.5t-4 30v167h911zM163 247q-12 0 -21 -8.5t-9 -21.5t9 -21.5t21 -8.5q13 0 22 8.5t9 21.5t-9 21.5t-22 8.5zM316 123q-8 -26 -14 -48q-5 -19 -10.5 -37t-7.5 -25t-3 -15t1 -14.5
t9.5 -10.5t21.5 -4h37h67h81h80h64h36q23 0 34 12t2 38q-5 13 -9.5 30.5t-9.5 34.5q-5 19 -11 39h-368zM336 498v228q0 11 2.5 23t10 21.5t20.5 15.5t34 6h188q31 0 51.5 -14.5t20.5 -52.5v-227h-327z" />
    <glyph glyph-name="uniE600" unicode="&#xe600;" horiz-adv-x="1025" 
d="M264 666q5 29 13 58q8 30 22 54q-5 10 -42 12t-49 -12q-19 -25 -30 -50q-11 -26 -17 -66q-2 -9 49 -8t54 12zM177 445q7 -54 21 -79.5t28 -42.5q4 -8 39 10q18 9 26 14.5t6 7.5q-19 26 -27 56t-10 48q0 7 -42 1q-21 -3 -31.5 -7t-9.5 -8zM260 617q3 8 -51 5t-54 -9
q-10 -76 8 -124q3 -8 51 -2q49 6 45 17q-15 50 1 113zM405 412q-6 13 -10 30q-4 18 -1 35q2 7 -24 5q-8 -1 -20 -3q-47 -6 -49 -12q0 -25 11 -54q10 -28 20 -44q4 -7 41.5 12.5t31.5 30.5zM309 619q-14 -48 -10 -110q2 -7 50 -5q24 1 35.5 4t9.5 8q-2 27 -1 53q1 29 8 60
q1 7 -46 3q-46 -4 -46 -13zM337 767q-14 -23 -18 -50t-6 -49q0 -14 45 -10t48 18q4 34 21 71q4 9 -40 21q-45 11 -50 -1zM528 6q-56 36 -110 62q-61 28 -111 50q-57 26 -104 22q-49 -3 25 -55q42 -32 131 -71q91 -40 163 -72q60 -25 62.5 1.5t-56.5 62.5zM145 120
q13 39 18 47t3 13q-3 4 -15 17.5t-34 62.5q-53 109 -67 231q-15 123 20 213q36 91 128 128q93 37 255 -24q23 62 84.5 68.5t73.5 -54.5q26 44 92.5 18.5t41.5 -83.5q43 55 100 17t32 -94q29 44 75 15q45 -30 9 -161q-40 -245 -103 -382q-63 -136 -200 -188q-10 -34 -36 -56
t-45 -15q-18 0 -90 23q-72 24 -152 60q-77 34 -138 74q-61 39 -52 70z" />
    <glyph glyph-name="uniE601" unicode="&#xe601;" horiz-adv-x="1025" 
d="M384 -92h61v-17h-61v17zM416 304q-96 0 -164.5 84t-68.5 202.5t68.5 202.5t164.5 84t164 -84t68 -202.5t-68 -202.5t-164 -84zM416 863q-90 0 -154 -80t-64 -192.5t64 -192.5t154 -80t154 80t64 192.5t-64 192.5t-154 80zM401 174q-3 12 -9.5 30.5t-30 61.5t-51.5 69
l10 11q30 -28 54 -72t30.5 -63.5t10.5 -32.5zM423 173l-14 5q4 11 11.5 28t24 50t37.5 60t40 37l7 -13q-23 -11 -50.5 -56t-39 -71t-16.5 -40zM384 60v-35l61 15v36zM384 9v-40l61 15v41zM445 -31l-61 -16v-29h61v45zM384 206h61v-53h-61v53zM384 114v-38l61 15v23h-61z
M384 141h61v-15h-61v15zM278 373h273v-7h-273v7zM226 737h379v-7h-379v7zM198 664h436v-7h-436v7zM191 591h450v-7h-450v7zM198 519h436v-8h-436v8zM218 446h393v-8h-393v8zM276 810h280v-7h-280v7zM343 856h7v-532h-7v532zM485 856h7v-532h-7v532zM555 807h8v-438h-8v438z
M272 805h7v-429h-7v429zM414 870h7v-559h-7v559zM703 118zM578 118q0 52 36.5 88.5t88.5 36.5t89 -36.5t37 -88.5t-37 -89t-89 -37t-88.5 37t-36.5 89z" />
    <glyph glyph-name="uniE602" unicode="&#xe602;" horiz-adv-x="1025" 
d="M887.5 519q-16.5 0 -28 -14t-11.5 -34v-210q0 -20 11.5 -34t28 -14t28.5 14t12 34v210q0 20 -12 34t-28.5 14zM978 460q-11 0 -19 -9t-8 -23v-124q0 -14 8 -23t19 -9t19 9t8 23v124q0 14 -8 23t-19 9zM767 598q-22 0 -37.5 -18.5t-15.5 -44.5v-114h-404v114
q0 26 -15.5 44.5t-37.5 18.5t-38 -18.5t-16 -44.5v-299q0 -26 16 -44.5t38 -18.5t37.5 18.5t15.5 44.5v114h404v-114q0 -26 15.5 -44.5t37.5 -18.5t38 18.5t16 44.5v299q0 26 -16 44.5t-38 18.5zM46 499q-11 0 -19 -9.5t-8 -22.5v-125q0 -13 8 -22t19 -9t19 9t8 22v125
q0 13 -8 22.5t-19 9.5zM136.5 558q-16.5 0 -28.5 -14t-12 -34v-211q0 -19 12 -33t28.5 -14t28 14t11.5 33v211q0 20 -11.5 34t-28 14z" />
    <glyph glyph-name="uniE603" unicode="&#xe603;" horiz-adv-x="1025" 
d="M887 704q-167 -127 -368 -328q3 -2 4 -3q36 -36 76 -79q63 50 166 35.5t220 -85.5q35 116 9.5 240t-107.5 220zM614 279q135 -143 227 -261q1 0 8.5 6.5t11.5 10.5q80 80 117 189q-111 69 -208.5 84.5t-155.5 -29.5zM444 450q32 -31 60 -59q199 198 368 329q-1 2 -5 6
t-6 7q-97 96 -228.5 129t-254.5 -3q80 -123 98.5 -233t-32.5 -176zM642 -92q102 28 184 95q-94 121 -227 262q-47 -56 -35 -151t78 -206zM429 435q-63 -55 -170.5 -40t-228.5 91q-26 -120 8.5 -240.5t124.5 -210.5q3 -2 7.5 -6.5t5.5 -4.5q124 160 313 352q-31 31 -60 59z
M584 280q-41 43 -76 78l-3 3q-190 -191 -313 -352q90 -77 203.5 -104t225.5 -2q-67 116 -78 216.5t41 160.5zM358 852q-112 -37 -195 -119q-4 -5 -20 -22q127 -96 285 -246q48 61 28 165.5t-98 221.5zM414 449q-155 148 -285 246q-67 -83 -94 -188q116 -74 218 -90.5
t161 32.5z" />
    <glyph glyph-name="uniE604" unicode="&#xe604;" 
d="M168 -24l-25 -25q-6 -5 -14 -5t-14 6l-93 98q-6 5 -5.5 13t5.5 14l26 24q6 6 13.5 5.5t13.5 -5.5l94 -98q5 -6 5 -14t-6 -13zM935 847q-7 10 -31 20t-55 10q-30 0 -68 -21q-26 -13 -54 -31.5t-73 -55t-87.5 -80.5t-93.5 -111t-94 -144q-4 -6 -11.5 -18.5t-34.5 -51
t-59.5 -79t-86.5 -99t-115 -114.5l34 -45l44 -34q57 60 115.5 113t101.5 86.5t78 57.5t53 35l18 11q77 42 144.5 92t112 92t81.5 86.5t55.5 72.5t32.5 54q22 40 23 75q0 29 -10 50.5t-20 28.5zM589 137q-1 9 9 10q3 0 6 -2q3 -3 4 -7l2 -31q11 1 25 5l-11 27q-4 8 5 12
q3 1 6 0q4 -1 6 -5l11 -28q15 6 27 14l-19 23q-6 7 2 13q2 2 6 2t7 -4l20 -23q14 11 26 25l-23 21q-7 7 -1 14q3 2 6 2q4 1 7 -2l22 -20q6 10 12 22l-22 10q-3 2 -5 6q0 4 1 7q4 8 12 4l21 -9q5 14 7 27l-24 3q-4 1 -6 4t-2 7q1 9 11 8l23 -4q0 11 -1 24l-26 -5q-4 -1 -7 2
q-3 2 -4 6q-1 9 8 10l27 5q-2 9 -2 10q-91 -14 -144 -89q-40 -56 -39 -126q9 -1 20 0zM977 44q-1 -10 -10 -9q-4 1 -6 3q-3 3 -3 7l3 32q-11 0 -25 -2l6 -28q3 -9 -7 -11q-3 -1 -6 1q-4 2 -5 6l-7 29q-15 -3 -28 -9l15 -25q4 -8 -4 -13q-3 -2 -6 -1q-4 1 -7 4l-15 27
q-16 -8 -30 -20l19 -25q5 -8 -2 -13q-3 -2 -6 -2q-5 0 -7 4l-18 23q-8 -10 -15 -20l19 -13q3 -3 4 -7q0 -3 -2 -6q-5 -8 -12 -3l-19 13q-7 -13 -11 -25l22 -8q4 -1 6 -5q1 -3 0 -7q-3 -8 -11 -5l-23 7q-2 -10 -3 -24l26 1q5 0 7 -3q3 -3 3 -7q0 -9 -9 -9h-28v-10
q92 -2 158 63q48 49 60 118q-9 2 -20 3zM738 -22l36 -12q6 18 14 31l-32 22q-8 5 -2.5 12.5t12.5 2.5l31 -21q10 13 20 24l-19 25q-6 7 1.5 13t12.5 -2l19 -24q14 12 32 22l-15 27q-5 8 3 12.5t13 -3.5l16 -28q18 8 33 11l-7 31q-2 9 7 11t11 -7l8 -32q17 2 31 2l3 30
q1 9 10 8t8 -10l-2 -29q11 -2 20 -4q7 94 -57 163q0 1 -1 1l-1 1q-1 1 -17 16q-9 8 -15 12q-61 43 -137 39q0 -2 1 -8l33 6q9 1 11 -8t-7 -10l-34 -7q1 -15 0 -29l38 -6q9 -1 7.5 -10t-10.5 -8l-38 5q-2 -18 -7 -32l35 -17q8 -3 4 -11.5t-12 -4.5l-34 15q-7 -14 -16 -27
l24 -21q7 -7 0.5 -13.5t-13.5 -0.5l-22 21q-12 -15 -28 -27l19 -24q6 -7 -1 -13t-13 1l-20 25q-16 -11 -32 -17l13 -29q3 -8 -5.5 -12t-11.5 5l-13 30q-17 -5 -31 -7l2 -30q1 -9 -8 -9.5t-10 8.5l-2 29h-21q7 -73 57 -126q4 -5 5 -6q54 -53 129 -62v8h-33q-10 0 -10 9t9 10
h35q1 16 5 29l-37 12q-8 3 -6 12q4 9 12 6z" />
    <glyph glyph-name="uniE605" unicode="&#xe605;" 
d="M117 422q20 115 69 215t121 171q23 23 56 46q-151 -47 -247.5 -176.5t-96.5 -293.5q0 -182 119 -321q-55 168 -21 359zM257 276q0 131 55 246.5t151 197.5q-27 68 -74 128q-38 -27 -67 -55q-70 -69 -117.5 -165.5t-66.5 -209.5q-37 -209 36 -388q61 26 113 65
q-30 91 -30 181zM842 617q-18 91 -57 165q-1 3 -5 9t-4 7q-72 47 -155 66q89 -97 128 -221zM959 584q-50 111 -145 187q35 -75 51 -160zM486 718l238 -67q-43 125 -139 220q-42 6 -75 6q-53 0 -107 -12q48 -61 77 -130q1 -3 6 -17zM305 82q-8 -6 -11 -9q-49 -35 -106 -60
q66 -59 150 -90q108 30 197 99q-120 27 -230 60zM843 394q-218 49 -522 94q-26 -63 -36 -131q216 -63 419 -119q142 -40 256 -52q31 72 39 150q-80 41 -156 58zM622 -96q91 22 169 76q-42 3 -78 8q-41 -48 -91 -84zM685 -8q-25 4 -39 7q-42 8 -83 17q-85 -70 -191 -105
q68 -20 138 -20q26 0 51 3q67 34 124 98zM286 332q-3 -32 -3 -60q0 -86 28 -172q174 -52 342 -84q71 -14 168 -20q84 68 133 166q-110 12 -252 51q-215 60 -416 119zM973 555l-497 141q-93 -81 -143 -192q302 -44 519 -93q74 -17 152 -55q0 1 0.5 10t0.5 14q0 90 -32 175z
" />
    <glyph glyph-name="uniE606" unicode="&#xe606;" 
d="M206 353q0 39 -27 66.5t-66 27.5t-66.5 -27.5t-27.5 -66.5t27.5 -66.5t66.5 -27.5t66 27.5t27 66.5zM897 727q-71 71 -166 96.5t-190 0t-166 -96.5q-63 -63 -89.5 -146t-13.5 -169l309 -309q86 -13 169.5 13t146.5 89q71 71 96 166t0 190t-96 166zM294 220l-184 -183
q-8 -9 -8 -20.5t8 -19.5l57 -56q8 -9 19.5 -9t19.5 9l184 183l132 -9l-237 237z" />
    <glyph glyph-name="uniE607" unicode="&#xe607;" 
d="M518 445l-2 107l-29 18l-78 -52zM530 278l114 76l-3 159l-116 72zM922 499l-271 -5v-19l152 -99l121 2zM389 490l-275 -5l2 -121l98 1zM654 355l307 -206l44 82l-353 232zM419 499l-400 -285l47 -81l436 311zM484 296l36 20l-2 121l-121 -87z" />
    <glyph glyph-name="uniE608" unicode="&#xe608;" 
d="M697 709q-25 76 -85 76h-200q-60 0 -85 -76q-70 -4 -118 -58.5t-48 -129.5v-349q0 -78 52 -133.5t125 -55.5h348q73 0 125 55.5t52 133.5v349q0 75 -48 129.5t-118 58.5zM412 735h200q25 0 37.5 -45.5t12.5 -88.5h-300q0 43 12.5 88.5t37.5 45.5zM813 172
q0 -58 -37.5 -98.5t-89.5 -40.5h-348q-52 0 -89.5 40.5t-37.5 98.5v349q0 51 29.5 89t74.5 47q-4 -25 -4 -56h-33v-50h468v50h-33q0 31 -4 56q45 -9 74.5 -47t29.5 -89v-349zM311 384h402v50h-402v-50zM311 234h201v50h-201v-50z" />
    <glyph glyph-name="uniE609" unicode="&#xe609;" 
d="M510 297v58l-17 11l-49 -28zM483 377h1h-1zM268 337h165l1 1l-12 7l49 29l-84 332l-145 -49l26 -293v-27zM513 499l-58 229l-55 -22l82 -326zM500 382l15 -9v21l37 -22l85 334l-56 18l-85 -344zM608 344v-7h150v30l26 290l-135 46l-85 -333zM516 205l70 40v88l-70 41
v-169zM707 248l49 -30l-5 24v6h-44zM765 323h-166v-11l92 -56h74v67zM424 323h-168v-67h60zM599 245l186 -116l28 45l-214 131v-60zM481 199l-38 22l-47 -187h60l44 175zM596 231l-81 -47v5l-39 -155h315l-17 86zM800 648l-25 -260l96 -196l134 69zM224 648l-205 -387
l134 -69l96 196zM443 328l-248 -154l28 -45l270 167zM265 226l35 22h-32v-8zM481 215l22 11v66l-75 -47zM420 235l-173 -107l-19 -94h162l48 190z" />
    <glyph glyph-name="uniE60A" unicode="&#xe60a;" 
d="M818 432q-47 59 -90 130t-58 122q-12 44 -38.5 84t-28.5 47l-5 13q-2 8 -3 14t-3.5 13t-4.5 11t-5.5 8t-7.5 3t-10 -2q-11 -6 -21 -32t-14 -49l-3 -23q-19 -18 -52.5 -75.5t-42.5 -70.5q-11 -15 -18.5 -30t-12 -27.5t-16.5 -46.5t-24 -65t-37 -106.5t-44.5 -121.5
t-42.5 -72q-22 -25 -36 -48t-16.5 -31t-2.5 -10q9 -37 29 -50q10 -5 20 -8.5t15 -3.5h5q18 -46 33 -79q11 -23 38 -29t96 -6h191q48 0 98 31t72 85q82 203 94 272q6 41 -4 71.5t-50 81.5zM674 217q-10 -25 -16.5 -52.5t-9 -40.5t-2.5 -14q-6 -1 -16 -2t-35 -9.5t-43 -23
t-29.5 -34.5t-14.5 -30t-3 -12q-34 4 -66 41q-21 26 -22.5 56t10.5 75q40 -5 86 8q11 2 22 9q15 -11 34 -11q21 0 36 12t15 29q0 27 -30 38q4 14 0 23q-7 21 -36.5 41t-68.5 32q-22 8 -39 11.5t-23 4.5h-7q25 40 26 86q0 16 2.5 25.5t7 16t14.5 27.5t22 52q16 41 27.5 69.5
t14.5 35.5l4 7q1 -2 3 -5.5t11 -10.5t21 -8l42 -4q11 -88 44 -173q14 -38 35.5 -79.5t35.5 -64.5l14 -22q-46 -44 -66 -103z" />
    <glyph glyph-name="uniE60B" unicode="&#xe60b;" horiz-adv-x="1025" 
d="M357 475q79 79 105 188t-5 211q-172 -19 -294 -141q-75 -75 -111.5 -172t-32.5 -199q93 -12 182 17t156 96zM616 200q-62 -62 -91.5 -142.5t-23.5 -166.5q99 -2 193 34.5t167 109.5q112 112 137 269q-102 25 -204 -1.5t-178 -102.5zM861 733q-73 73 -167 109.5t-194 34.5
q32 -111 2.5 -229t-115.5 -203q-73 -73 -168.5 -105t-195.5 -21q22 -166 140 -284q122 -122 295 -141q-5 93 28 180.5t100 155.5q83 83 194.5 113t223.5 4q8 106 -28.5 207t-114.5 179z" />
    <glyph glyph-name="uniE60C" unicode="&#xe60c;" 
d="M998 18l-36 36q39 60 31.5 133t-59.5 125q-7 7 -16 14q-56 46 -129 46.5t-129 -45.5l-114 114l319 319q18 19 27 36.5t2 24t-24.5 -2t-36.5 -26.5l-319 -319l-319 319q-18 18 -36 26.5t-24.5 2t2 -24t27.5 -36.5l318 -319l-113 -114q-57 46 -130 45.5t-129 -46.5
q-8 -6 -16 -14q-52 -52 -59 -125t32 -132l-37 -37q-9 -9 -9 -22.5t9 -22.5l17 -16q9 -10 22.5 -10t22.5 10l194 194l114 -115q46 57 46.5 130t-45.5 130l113 113l114 -113q-46 -57 -46 -130t46 -130l115 115l193 -194q10 -10 23 -10t22 10l17 16q9 9 9 22.5t-9 22.5zM91 79
q-28 47 -21 104t48 98q9 9 20 17l86 -86zM937 79l-133 133l86 86q12 -8 21 -17q41 -41 48 -98t-22 -104z" />
    <glyph glyph-name="uniE60D" unicode="&#xe60d;" 
d="M737 267q-17 41 -8 102t27.5 114t33.5 101.5t9 64.5q-12 7 -20.5 14t-14.5 16.5t-9 15t-8.5 18.5t-8.5 20q-27 58 -13 136l-49 8q-2 -73 -25 -119q-36 -72 -117 -72h-3v0v0h-3q-82 0 -118 72q-23 46 -25 119l-49 -8q15 -78 -12 -136q-3 -7 -8.5 -20t-8.5 -18.5t-9.5 -15
t-14.5 -16.5t-20 -14q-6 -16 8.5 -64.5t33.5 -101.5t28 -114t-8 -102q-42 -53 -65 -89t-27 -52.5t4 -22.5q128 -26 192 -78.5t78 -131.5l9 -1v-1l15 1l15 -1v1l8 1q14 79 78 131.5t193 78.5q8 6 4 22.5t-27 52.5t-65 89z" />
    <glyph glyph-name="uniE60E" unicode="&#xe60e;" horiz-adv-x="1025" 
d="M735 153q-55 0 -94 -26t-39 -63t39 -63.5t94 -26.5t94 26.5t39 63.5t-39 63t-94 26zM985 113h-63q-9 0 -14.5 -6.5t-5.5 -15.5v-54q0 -9 5.5 -15.5t14.5 -6.5h63q8 0 14 6.5t6 15.5v54q0 9 -6 15.5t-14 6.5zM985 42q0 -8 -7 -8h-15q-7 0 -7 8v44q0 8 7 8h16q6 0 6 -8v-44
zM892 37v54q0 13 8.5 22.5t21.5 9.5h2q-8 26 -24 42.5t-40 24.5t-48.5 11t-58.5 3q-59 0 -104.5 -25.5t-64.5 -66.5q-56 -23 -73 -23t-73 23q-20 40 -65 64t-102 24q-34 0 -58.5 -2.5t-48.5 -10.5t-40 -25t-24 -42h2q13 0 21.5 -9.5t8.5 -22.5v-55q0 -13 -8.5 -22.5
t-21.5 -9.5h-2q8 -26 24 -42.5t40 -24.5t48.5 -11t58.5 -3q61 0 107.5 27t63.5 70q53 22 69 22q17 0 73 -24q19 -41 64.5 -66t104.5 -25q34 0 58.5 2.5t48.5 10.5t40 25t24 42h-2q-13 0 -21.5 9.5t-8.5 23.5zM288.5 -44q-61.5 0 -103.5 30.5t-42 74t42 73.5t103.5 30
t104 -30t42.5 -73.5t-42.5 -74t-104 -30.5zM735 -40q-62 0 -104 30t-42 74t42 74t104 30t104 -30t42 -74t-42 -74t-104 -30zM289 150q-55 0 -94 -26t-39 -63.5t39 -63.5t94 -26t94 26t39 63.5t-39 63.5t-94 26zM122 33v55q0 8 -6 14.5t-14 6.5h-63q-8 0 -14 -6.5t-6 -14.5
v-55q0 -9 6 -15t14 -6h63q8 0 14 6t6 15zM68 38q0 -7 -7 -7h-16q-6 0 -6 7v45q0 7 6 7h16q7 0 7 -7v-45zM1001 273q2 28 2 46q0 90 -17 168.5t-54.5 146t-94 115.5t-139.5 75.5t-186 27.5t-186 -27.5t-139.5 -75.5t-94 -115.5t-54.5 -146t-17 -168.5q0 -18 2 -46h978z" />
    <glyph glyph-name="uniE60F" unicode="&#xe60f;" 
d="M994 486l-3 -6l-55 -96l58 -101q11 50 11 101t-11 102zM415 552l-48 -84l-48 -84l48 -83l48 -84h194l48 84l48 83l-96 168h-194zM299 752l58 100q-97 -32 -173 -100h103h12zM30 486q-11 -51 -11 -102q0 -52 11 -102l58 102zM319 743l98 -169h190l98 169l-69 118
q-124 32 -248 0l-61 -105zM724 752h12h104q-76 68 -173 100l37 -64zM299 38l97 168l-97 167h-192l-45 -79l-25 -43q34 -122 123 -213h127h12zM299 395l97 168l-97 167h-11h-127q-90 -90 -124 -213l70 -122h192zM288 16h-104q76 -68 173 -100l-58 100h-11zM724 373l-96 -167
l96 -168h12h128q89 91 123 213l-70 122h-193zM724 16l-58 -100q98 32 174 100h-103h-13zM607 195h-190l-98 -169l27 -47l42 -72q124 -32 248 0l69 119zM724 730l-9 -16l-87 -151l93 -161l3 -7h192l57 98l14 24q-35 123 -124 213h-126h-13z" />
    <glyph glyph-name="uniE610" unicode="&#xe610;" 
d="M1003 315l2 111l-114 1l-2 -1l2 1l2 111l-114 2l-2 -2l2 2l1 111l-114 1l-1 -1l2 1l1 111l-114 2l-1 -2l1 2l2 110l-114 2l-245 -538l-79 -129v1q-26 -15 -43 -32q-53 -52 -56 -123.5t45 -119.5t119.5 -45t123.5 56q17 17 32 43l-1 1l128 79zM338 199l75 41l179 146l9 -9
l-168 -153l-43 -78l-8 -7l-52 52zM314 176l51 -51l-45 -37l-47 48zM303 74l-27 -22l-44 44l25 24zM224 105l-44 44l22 27l46 -46zM263 146l-47 47l37 45l50 -51zM349 304l155 170l9 -9l-145 -177l-42 -78l-8 -7l-51 52l7 8zM209 328l76 41l131 193l10 -9l-122 -201l-43 -77
l-6 -9l-52 52zM242 249l-36 -46l-47 47l32 50zM146 231l46 -46l-21 -27l-44 44zM285 44l27 21l46 -46l-29 -19zM377 31l-47 47l46 36l51 -50zM445 76l-51 52l8 7l76 41l202 123l9 -9l-192 -131l-43 -77z" />
    <glyph glyph-name="uniE611" unicode="&#xe611;" 
d="M1005 677.5q0 -20.5 -20 -34.5t-49 -14h-848q-29 0 -49 14t-20 34.5t20 34.5t49 14h848q29 0 49 -14t20 -34.5zM268 686zM173 685.5q0 39.5 28 67t67 27.5t67 -27.5t28 -67t-28 -67t-67 -27.5t-67 27.5t-28 67zM756 686zM661 685.5q0 39.5 28 67t67 27.5t67 -27.5t28 -67
t-28 -67t-67 -27.5t-67 27.5t-28 67zM981 -8q0 -22 -16 -38t-39 -16h-828q-23 0 -39 16t-16 38v490q0 23 16 39t39 16h828q23 0 39 -16t16 -39v-490zM798 172h39v139h47v33h-132v-33h46v-139zM653 315q4 1 17 1q29 0 29 -24q0 -11 -8.5 -17.5t-22.5 -6.5h-15v47zM614 172h39
v68h11q12 0 18.5 -6t9.5 -22q7 -30 12 -40h40q-1 3 -14 49q-7 25 -23 32v1q12 4 21 15t9 27q0 23 -16 36q-17 13 -55 13q-30 0 -52 -3v-170zM506.5 316q19.5 0 30.5 -16.5t11 -40.5q0 -26 -11 -42.5t-30.5 -16.5t-30.5 16t-11 42t11 42t30.5 16zM507 347q-37 0 -60 -25.5
t-23 -64.5q0 -38 22 -62.5t59 -24.5q38 0 61 24t23 66q0 37 -22 62t-60 25zM322 314q5 2 16 2q31 0 31 -26q0 -12 -9 -19.5t-25 -7.5q-8 0 -12 1v50h-1zM284 172h38v62q5 -1 14 -1q36 0 55 18q16 14 16 41q0 25 -18 39q-17 14 -53 14q-31 0 -52 -3v-170zM140 181
q19 -11 49 -11q33 0 50.5 15t17.5 38q0 35 -44 51q-18 7 -24.5 12t-6.5 12t6 12t18 5q20 0 36 -8l9 31q-18 8 -44 8q-30 0 -47.5 -14.5t-17.5 -36.5q0 -34 47 -51q29 -10 29 -24q0 -18 -27 -18q-23 0 -43 10z" />
    <glyph glyph-name="uniE612" unicode="&#xe612;" horiz-adv-x="1025" 
d="M510 375q-57 -22 -57 -65q0 -23 16.5 -37t43.5 -14q26 0 42 14t16 35q0 45 -61 67zM561 465q0 20 -13 32t-35 12q-20 0 -35 -13q-14 -12 -14 -31q0 -39 48 -58q49 20 49 58zM512 609q-93 0 -159 -66t-66 -159t66 -159t159 -66t159 66t66 159t-66 159t-159 66zM579.5 252
q-26.5 -22 -73.5 -22q-38 0 -63 22t-25 56q0 57 64 83v1q-53 25 -53 72q0 32 24.5 52.5t62.5 20.5q35 0 57.5 -19t22.5 -49q0 -50 -55 -77v-1q65 -23 65 -80q0 -37 -26.5 -59zM512 -109q181 0 319 118h-638q138 -118 319 -118zM512 877q-104 0 -197 -41t-162 -115l719 -1
q-69 74 -162 115.5t-198 41.5zM899 688l-773 2q-107 -135 -107 -306q0 -98 37 -187t103 -157h706q66 68 103 157t37 187q0 170 -106 304zM512 128q-106 0 -181 75t-75 181t75 181t181 75t181 -75t75 -181t-75 -181t-181 -75z" />
    <glyph glyph-name="uniE613" unicode="&#xe613;" 
d="M366 641l-148 -256l148 -256h296l148 256l-148 256h-296zM662 667l86 150q-109 60 -236 60q-125 0 -234 -59l88 -151h296zM197 374h-178q3 -129 66.5 -237.5t169.5 -173.5l90 155zM366 103l-89 -153q109 -59 235 -59q127 0 237 61l-87 151h-296zM686 113l85 -148
q104 64 167 171t67 233h-171zM834 397h171q-3 127 -66 234t-167 171l-86 -149zM340 650l-88 152q-105 -65 -168 -173t-65 -235h173z" />
    <glyph glyph-name="uniE614" unicode="&#xe614;" 
d="M1005 677.5q0 -20.5 -20 -34.5t-49 -14h-848q-29 0 -49 14t-20 34.5t20 34.5t49 14h848q29 0 49 -14t20 -34.5zM268 686zM173 685.5q0 39.5 28 67t67 27.5t67 -27.5t28 -67t-28 -67t-67 -27.5t-67 27.5t-28 67zM756 686zM661 685.5q0 39.5 28 67t67 27.5t67 -27.5t28 -67
t-28 -67t-67 -27.5t-67 27.5t-28 67zM506.5 316q-19.5 0 -30.5 -16t-11 -42t11 -42t30.5 -16t30.5 16.5t11 42.5q0 24 -11 40.5t-30.5 16.5zM670 316q-13 0 -17 -1v-47h15q14 0 22.5 6.5t8.5 17.5q0 24 -29 24zM338 316q-11 0 -16 -2v-50q5 -1 13 -1q16 0 25 7.5t9 19.5
q0 26 -31 26zM926 537h-828q-23 0 -39 -16t-16 -39v-490q0 -22 16 -38t39 -16h828q23 0 39 16t16 38v490q0 23 -16 39t-39 16zM189 170q-30 0 -49 11l8 31q20 -10 43 -10q27 0 27 18q0 14 -29 24q-47 17 -47 51q0 22 17.5 36.5t47.5 14.5q26 0 44 -8l-9 -31q-16 8 -36 8
q-11 0 -17.5 -5t-6.5 -12t6.5 -12t24.5 -12q45 -16 45 -51q0 -23 -18 -38t-51 -15zM391 251q-19 -18 -55 -18q-9 0 -14 1v-62h-38v170q21 3 52 3q36 0 53 -14q18 -14 18 -39q0 -27 -16 -41zM505 170q-37 0 -59 24.5t-22 62.5q0 39 23 64.5t60 25.5q38 0 60 -25t22 -62
q0 -42 -23 -66t-61 -24zM704 172q-5 10 -12 40q-3 16 -9.5 22t-18.5 6h-11v-68h-39v170q22 3 52 3q38 0 55 -13q16 -13 16 -36q0 -16 -9 -27t-21 -15v-1q16 -7 23 -32q12 -46 14 -49h-40zM884 311h-47v-139h-39v139h-46v33h132v-33z" />
    <glyph glyph-name="uniE615" unicode="&#xe615;" 
d="M1009 335q0 -6 -6 -15q-1 -1 -47 -60t-92 -117l-46 -58q-7 -8 -17 -8h-3h-1h-444q-26 -1 -42 -1h-12q-141 0 -209 69q-33 32 -50 75q-16 38 -17 79q-3 93 59 158q6 7 14 14l205 207q52 56 130 62q7 1 17 1q69 0 121 -44q54 -45 63 -118q8 -70 -31 -124q-8 -15 -30.5 -40
t-41.5 -42l-19 -17q3 0 9 0.5t7 0.5h10h24h427q9 0 15.5 -6.5t6.5 -15.5zM791 123l152 190h-382h-40l-11 -1v1q-21 0 -38 1l-77 -89q-3 -3 -5 -6q-8 -10 -17 -19q-48 -45 -113 -45q-12 0 -25 2q-39 6 -69.5 28t-47.5 57q-34 69 2 132q17 29 44 45.5t58 17.5q59 -1 99 -42
q20 -21 25 -49.5t-6 -55.5l-1 -1q-11 -23 -32 -37t-45 -14q-10 0 -20 3q-17 4 -31.5 18t-20.5 32q-11 33 10 58l1 1q12 12 28 11q19 0 32 -15q6 -8 5.5 -17.5t-7.5 -15.5q-7 -5 -15 -5q-6 0 -11 2q0 -3 1 -5q5 -16 19 -20h1q4 -1 8 -1q11 0 21 7.5t15 17.5q12 30 -10 54
q-26 27 -66 28q-40 -1 -62 -39q-24 -42 -1 -90q25 -50 83 -60q9 -1 18 -1q57 0 94 46q34 43 27.5 101t-49.5 94h-1q-41 35 -97 35q-71 0 -119 -52q-48 -51 -46 -124t53 -123q56 -56 178 -56h16h11h13q8 0 12 1h439z" />
    <glyph glyph-name="uniE616" unicode="&#xe616;" 
d="M211 178v407h-50v-442q0 -45 32.5 -77.5t77.5 -32.5h442v50h-407q-50 0 -72.5 22t-22.5 73zM753 735h-381q-46 0 -78.5 -32.5t-32.5 -77.5v-381q0 -46 32.5 -78.5t78.5 -32.5h381q45 0 77.5 32.5t32.5 78.5v381q0 45 -32.5 77.5t-77.5 32.5zM813 275q0 -54 -22 -73
t-70 -19h-318q-49 0 -70.5 20.5t-21.5 71.5v318q0 50 21.5 71t70.5 21h318q53 0 72.5 -21t19.5 -71v-318z" />
    <glyph glyph-name="uniE617" unicode="&#xe617;" 
d="M729 735h-434q-42 0 -71.5 -29.5t-29.5 -70.5v-502q0 -41 29.5 -70.5t71.5 -29.5h434q42 0 71.5 29.5t29.5 70.5v502q0 41 -29.5 70.5t-71.5 29.5zM779 183q0 -35 -5 -55.5t-19.5 -30t-29.5 -12t-46 -2.5h-334q-35 0 -55.5 6t-30 20.5t-12 30t-2.5 43.5v402q0 57 20 78.5
t80 21.5h334q35 0 55 -4.5t30 -18t12.5 -29.5t2.5 -48v-402zM395 534h-33q-7 0 -12 -4.5t-5 -11.5v-17q0 -7 5 -12t12 -5h33q7 0 12 5t5 12v17q0 7 -5 11.5t-12 4.5zM662 534h-183q-7 0 -12 -4.5t-5 -11.5v-17q0 -7 5 -12t12 -5h183q7 0 12 5t5 12v17q0 7 -5 11.5t-12 4.5z
M395 434h-33q-7 0 -12 -5t-5 -12v-16q0 -7 5 -12t12 -5h33q7 0 12 5t5 12v16q0 7 -5 12t-12 5zM579 434h-100q-7 0 -12 -5t-5 -12v-16q0 -7 5 -12t12 -5h100q7 0 12 5t5 12v16q0 7 -5 12t-12 5z" />
    <glyph glyph-name="uniE618" unicode="&#xe618;" 
d="M729 735h-434q-42 0 -71.5 -29.5t-29.5 -70.5v-502q0 -41 29.5 -70.5t71.5 -29.5h434q42 0 71.5 29.5t29.5 70.5v502q0 41 -29.5 70.5t-71.5 29.5zM779 183q0 -35 -5 -55.5t-19.5 -30t-29.5 -12t-46 -2.5h-334q-35 0 -55.5 6t-30 20.5t-12 30t-2.5 43.5v402q0 57 20 78.5
t80 21.5h334q35 0 55 -4.5t30 -18t12.5 -29.5t2.5 -48v-402zM362 534h33q7 0 12 -4.5t5 -11.5v-17q0 -7 -5 -12t-12 -5h-33q-7 0 -12 5t-5 12v17q0 7 5 11.5t12 4.5zM479 534h183q7 0 12 -4.5t5 -11.5v-17q0 -7 -5 -12t-12 -5h-183q-7 0 -12 5t-5 12v17q0 7 5 11.5t12 4.5z
M362 434h33q7 0 12 -5t5 -12v-16q0 -7 -5 -12t-12 -5h-33q-7 0 -12 5t-5 12v16q0 7 5 12t12 5zM479 434h100q7 0 12 -5t5 -12v-16q0 -7 -5 -12t-12 -5h-100q-7 0 -12 5t-5 12v16q0 7 5 12t12 5zM362 334h33q7 0 12 -5t5 -12v-17q0 -6 -5 -11t-12 -5h-33q-7 0 -12 5t-5 11v17
q0 7 5 12t12 5zM479 334h50q7 0 11.5 -5t4.5 -12v-17q0 -6 -4.5 -11t-11.5 -5h-50q-7 0 -12 5t-5 11v17q0 7 5 12t12 5z" />
    <glyph glyph-name="uniE619" unicode="&#xe619;" 
d="M645 229l25 43l-141 82v197h-50v-226v0zM863 401h-51q1 -9 1 -17q0 -125 -88 -213t-213 -88t-213 88t-88 213t88 213t213 88q77 0 143 -36t107 -98h-67l-49 -50h197h3v201l-51 -51l1 -61q-49 67 -123.5 106t-160.5 39q-95 0 -176 -47t-128 -128t-47 -176t47 -176
t128 -128t176 -47t176 47t128 128t47 176v17z" />
    <glyph glyph-name="uniE61A" unicode="&#xe61a;" 
d="M387 217h51q6 43 39 71.5t77 28.5t76.5 -28.5t39.5 -71.5h50q-4 42 -27.5 76.5t-59.5 54.5q38 34 38 86q0 49 -34.5 83t-83 34t-82.5 -34t-34 -83q0 -52 38 -86q-36 -20 -59.5 -54.5t-28.5 -76.5zM553.5 501q27.5 0 47.5 -19.5t20 -47.5t-20 -47.5t-47.5 -19.5t-47 19.5
t-19.5 47.5t19.5 47.5t47 19.5zM754 735h-434q-42 0 -71 -29.5t-29 -70.5v-67h50v17q0 57 20 78.5t80 21.5h334q35 0 55 -4.5t30 -18t12.5 -29.5t2.5 -48v-402q0 -35 -5 -55.5t-19.5 -30t-29.5 -12t-46 -2.5h-334q-35 0 -55.5 6t-30 20.5t-12 30t-2.5 43.5v17h-50v-67
q0 -41 29 -70.5t71 -29.5h434q42 0 71.5 29.5t29.5 70.5v502q0 41 -29.5 70.5t-71.5 29.5zM186 468h117q7 0 12 4.5t5 11.5v17q0 7 -5 12t-12 5h-117q-7 0 -12 -5t-5 -12v-17q0 -7 5 -11.5t12 -4.5zM186 367h117q7 0 12 5t5 12v17q0 7 -5 11.5t-12 4.5h-117q-7 0 -12 -4.5
t-5 -11.5v-17q0 -7 5 -12t12 -5zM320 284v16q0 7 -5 12t-12 5h-117q-7 0 -12 -5t-5 -12v-16q0 -7 5 -12t12 -5h117q7 0 12 5t5 12z" />
    <glyph glyph-name="uniE61B" unicode="&#xe61b;" 
d="M610 729l-278 -148h-82q-41 0 -70 -28.5t-29 -69.5v-197q0 -41 29 -70t70 -29h82l278 -147q23 -13 44.5 -2.5t21.5 35.5v623q0 24 -22 34.5t-44 -1.5zM594 105l-246 132h-49q-34 0 -54.5 5.5t-30 20t-12 29.5t-2.5 43v99q0 56 20 77t79 21h49l246 131q18 9 25.5 7.5
t8.5 -14t0 -34.5q0 -8 -0.5 -13t-0.5 -13v-15v-394v-12v-14q0 -51 -4 -59t-29 3zM802 569q-7 8 -21 16t-26 -1q-7 -4 -7.5 -13t2 -16t5.5 -12l35 -41q34 -37 34 -101q0 -53 -35 -98q-25 -32 -35 -43q-7 -11 -6 -19.5t7 -13.5q8 -6 19 -6t15 4q84 72 84 177q0 52 -13.5 85.5
t-57.5 81.5z" />
    <glyph glyph-name="uniE61C" unicode="&#xe61c;" 
d="M763 685h-502q-41 0 -70.5 -29.5t-29.5 -70.5v-402q0 -41 29.5 -70.5t70.5 -29.5h502q41 0 70.5 29.5t29.5 70.5v402q0 41 -29.5 70.5t-70.5 29.5zM713 635q25 0 42 -3l-243 -198l-244 198q15 3 43 3h402zM813 234q0 -36 -4.5 -55.5t-18 -30t-29.5 -13t-48 -2.5h-402
q-35 0 -55.5 5.5t-30 20t-12 29.5t-2.5 46v300q0 39 8 61l293 -228l292 228q9 -22 9 -61v-300z" />
    <glyph glyph-name="uniE61D" unicode="&#xe61d;" 
d="M763 100v533q0 52 -54 52h-398q-29 0 -39.5 -16.5t-10.5 -50.5v-518l251 131zM728 735q34 0 59.5 -27t25.5 -63v-612l-301 134l-301 -134v612q0 36 25.5 63t59.5 27h432zM728 735z" />
    <glyph glyph-name="uniE61E" unicode="&#xe61e;" 
d="M697 709q-25 76 -85 76h-200q-60 0 -85 -76q-70 -4 -118 -58.5t-48 -129.5v-349q0 -78 52 -133.5t125 -55.5h348q73 0 125 55.5t52 133.5v349q0 75 -48 129.5t-118 58.5zM412 735h200q25 0 37.5 -45.5t12.5 -88.5h-300q0 43 12.5 88.5t37.5 45.5zM813 172
q0 -58 -37.5 -98.5t-89.5 -40.5h-348q-52 0 -89.5 40.5t-37.5 98.5v349q0 51 29.5 89t74.5 47q-4 -25 -4 -56h-33v-50h468v50h-33q0 31 -4 56q45 -9 74.5 -47t29.5 -89v-349zM467 244l-89 84l-33 -38l128 -117l200 237l-38 32z" />
    <glyph glyph-name="uniE61F" unicode="&#xe61f;" 
d="M813 178v407h50v-442q0 -45 -32.5 -77.5t-77.5 -32.5h-442v50h407q50 0 72.5 22t22.5 73zM161 625v-381q0 -46 32.5 -78.5t77.5 -32.5h381q46 0 78.5 32.5t32.5 78.5v381q0 45 -32.5 77.5t-78.5 32.5h-381q-45 0 -77.5 -32.5t-32.5 -77.5zM211 593q0 50 19.5 71t72.5 21
h318q49 0 70.5 -21t21.5 -71v-318q0 -51 -21.5 -71.5t-70.5 -20.5h-318q-48 0 -70 19t-22 73v318zM626 536l-200 -236l-128 117l32 38l90 -84l167 198z" />
    <glyph glyph-name="uniE620" unicode="&#xe620;" 
d="M729 685h-50v33q0 7 -5 12t-12 5h-16q-7 0 -12 -5t-5 -12v-33h-234v33q0 7 -5 12t-12 5h-16q-7 0 -12 -5t-5 -12v-33h-50q-42 0 -71.5 -29.5t-29.5 -70.5v-452q0 -41 29.5 -70.5t71.5 -29.5h434q42 0 71.5 29.5t29.5 70.5v452q0 41 -29.5 70.5t-71.5 29.5zM345 635v-34
q0 -7 5 -11.5t12 -4.5h16q7 0 12 4.5t5 11.5v34h234v-34q0 -7 5 -11.5t12 -4.5h16q7 0 12 4.5t5 11.5v34q35 0 55 -4.5t30 -18t12.5 -29.5t2.5 -49h-534q0 58 20 79.5t80 21.5zM679 83h-334q-35 0 -55.5 6t-30 20.5t-12 30t-2.5 43.5v301h534v-301q0 -35 -5 -55.5t-19.5 -30
t-29.5 -12t-46 -2.5zM662 384h-300q-7 0 -12 -5t-5 -12v-16q0 -7 5 -12t12 -5h300q7 0 12 5t5 12v16q0 7 -5 12t-12 5zM579 284h-217q-7 0 -12 -5t-5 -12v-17q0 -7 5 -11.5t12 -4.5h217q7 0 12 4.5t5 11.5v17q0 7 -5 12t-12 5z" />
  </font>
</defs>
</svg>
